<?xml version="1.0" encoding="UTF-8" standalone="no"?>
<!DOCTYPE svg PUBLIC "-//W3C//DTD SVG 1.1//EN"
 "http://www.w3.org/Graphics/SVG/1.1/DTD/svg11.dtd">
<!-- Generated by graphviz version 2.40.1 (20161225.0304)
 -->
<!-- Title: %3 Pages: 1 -->
<svg width="202pt" height="185pt"
 viewBox="0.00 0.00 202.00 184.75" xmlns="http://www.w3.org/2000/svg" xmlns:xlink="http://www.w3.org/1999/xlink">
<g id="graph0" class="graph" transform="scale(1 1) rotate(0) translate(4 180.751)">
<title>%3</title>
<polygon fill="#ffffff" stroke="transparent" points="-4,4 -4,-180.751 198,-180.751 198,4 -4,4"/>
<!-- A -->
<g id="node1" class="node">
<title>A</title>
<ellipse fill="none" stroke="#000000" cx="167" cy="-88" rx="27" ry="18"/>
<text text-anchor="middle" x="167" y="-84.3" font-family="Times,serif" font-size="14.00" fill="#000000">A</text>
</g>
<!-- B -->
<g id="node2" class="node">
<title>B</title>
<ellipse fill="none" stroke="#000000" cx="27" cy="-44.6213" rx="27" ry="18"/>
<text text-anchor="middle" x="27" y="-40.9213" font-family="Times,serif" font-size="14.00" fill="#000000">B</text>
</g>
<!-- C -->
<g id="node3" class="node">
<title>C</title>
<ellipse fill="none" stroke="#000000" cx="83.8874" cy="-90.0555" rx="27" ry="18"/>
<text text-anchor="middle" x="83.8874" y="-86.3555" font-family="Times,serif" font-size="14.00" fill="#000000">C</text>
</g>
<!-- B&#45;&#45;C -->
<g id="edge1" class="edge">
<title>B&#45;&#45;C</title>
<path fill="none" stroke="#000000" d="M44.3772,-58.5C51.3043,-64.0324 59.2688,-70.3934 66.224,-75.9483"/>
</g>
<!-- D -->
<g id="node4" class="node">
<title>D</title>
<ellipse fill="none" stroke="#000000" cx="93.6901" cy="-18" rx="27" ry="18"/>
<text text-anchor="middle" x="93.6901" y="-14.3" font-family="Times,serif" font-size="14.00" fill="#000000">D</text>
</g>
<!-- C&#45;&#45;D -->
<g id="edge2" class="edge">
<title>C&#45;&#45;D</title>
<path fill="none" stroke="#000000" d="M86.361,-71.8729C87.8584,-60.8664 89.7601,-46.8872 91.2512,-35.9272"/>
</g>
<!-- E -->
<g id="node5" class="node">
<title>E</title>
<ellipse fill="none" stroke="#000000" cx="109.558" cy="-158.751" rx="27" ry="18"/>
<text text-anchor="middle" x="109.558" y="-155.051" font-family="Times,serif" font-size="14.00" fill="#000000">E</text>
</g>
<!-- C&#45;&#45;E -->
<g id="edge4" class="edge">
<title>C&#45;&#45;E</title>
<path fill="none" stroke="#000000" d="M90.4982,-107.7463C94.3012,-117.9233 99.0662,-130.6745 102.8804,-140.8814"/>
</g>
<!-- D&#45;&#45;B -->
<g id="edge3" class="edge">
<title>D&#45;&#45;B</title>
<path fill="none" stroke="#000000" d="M70.3651,-27.3108C63.9045,-29.8898 56.8907,-32.6895 50.4245,-35.2707"/>
</g>
</g>
</svg>
