<?xml version="1.0" encoding="UTF-8" standalone="no"?>
<!DOCTYPE svg PUBLIC "-//W3C//DTD SVG 1.1//EN"
 "http://www.w3.org/Graphics/SVG/1.1/DTD/svg11.dtd">
<!-- Generated by graphviz version 2.40.1 (20161225.0304)
 -->
<!-- Title: %3 Pages: 1 -->
<svg width="202pt" height="185pt"
 viewBox="0.00 0.00 202.00 184.75" xmlns="http://www.w3.org/2000/svg" xmlns:xlink="http://www.w3.org/1999/xlink">
<g id="graph0" class="graph" transform="scale(1 1) rotate(0) translate(4 180.751)">
<title>%3</title>
<polygon fill="#ffffff" stroke="transparent" points="-4,4 -4,-180.751 198,-180.751 198,4 -4,4"/>
<!-- A -->
<g id="node1" class="node">
<title>A</title>
<ellipse fill="none" stroke="#000000" cx="167" cy="-88" rx="27" ry="18"/>
<text text-anchor="middle" x="167" y="-84.3" font-family="Times,serif" font-size="14.00" fill="#000000">A</text>
</g>
<!-- B -->
<g id="node2" class="node">
<title>B</title>
<ellipse fill="none" stroke="#000000" cx="27" cy="-44.6213" rx="27" ry="18"/>
<text text-anchor="middle" x="27" y="-40.9213" font-family="Times,serif" font-size="14.00" fill="#000000">B</text>
</g>
<!-- C -->
<g id="node3" class="node">
<title>C</title>
<ellipse fill="none" stroke="#000000" cx="83.8874" cy="-90.0555" rx="27" ry="18"/>
<text text-anchor="middle" x="83.8874" y="-86.3555" font-family="Times,serif" font-size="14.00" fill="#000000">C</text>
</g>
<!-- B&#45;&gt;C -->
<g id="edge1" class="edge">
<title>B&#45;&gt;C</title>
<path fill="none" stroke="#000000" d="M44.3772,-58.5C48.7066,-61.9577 53.4413,-65.7392 58.0815,-69.4452"/>
<polygon fill="#000000" stroke="#000000" points="56.226,-72.4425 66.224,-75.9483 60.5944,-66.9729 56.226,-72.4425"/>
</g>
<!-- D -->
<g id="node4" class="node">
<title>D</title>
<ellipse fill="none" stroke="#000000" cx="93.6901" cy="-18" rx="27" ry="18"/>
<text text-anchor="middle" x="93.6901" y="-14.3" font-family="Times,serif" font-size="14.00" fill="#000000">D</text>
</g>
<!-- C&#45;&gt;D -->
<g id="edge2" class="edge">
<title>C&#45;&gt;D</title>
<path fill="none" stroke="#000000" d="M86.361,-71.8729C87.4255,-64.048 88.6945,-54.7206 89.8749,-46.0437"/>
<polygon fill="#000000" stroke="#000000" points="93.3711,-46.3078 91.2512,-35.9272 86.435,-45.3641 93.3711,-46.3078"/>
</g>
<!-- E -->
<g id="node5" class="node">
<title>E</title>
<ellipse fill="none" stroke="#000000" cx="109.558" cy="-158.751" rx="27" ry="18"/>
<text text-anchor="middle" x="109.558" y="-155.051" font-family="Times,serif" font-size="14.00" fill="#000000">E</text>
</g>
<!-- C&#45;&gt;E -->
<g id="edge4" class="edge">
<title>C&#45;&gt;E</title>
<path fill="none" stroke="#000000" d="M90.4982,-107.7463C93.1722,-114.902 96.3218,-123.3304 99.282,-131.2521"/>
<polygon fill="#000000" stroke="#000000" points="96.1013,-132.7393 102.8804,-140.8814 102.6584,-130.2889 96.1013,-132.7393"/>
</g>
<!-- D&#45;&gt;B -->
<g id="edge3" class="edge">
<title>D&#45;&gt;B</title>
<path fill="none" stroke="#000000" d="M70.3651,-27.3108C66.9329,-28.6809 63.3446,-30.1133 59.7652,-31.5421"/>
<polygon fill="#000000" stroke="#000000" points="58.4143,-28.3127 50.4245,-35.2707 61.0095,-34.8139 58.4143,-28.3127"/>
</g>
</g>
</svg>
